<svg id="visual" viewBox="0 0 2560 1440" width="2560" height="1440" xmlns="http://www.w3.org/2000/svg" xmlns:xlink="http://www.w3.org/1999/xlink" version="1.1"><rect x="0" y="0" width="2560" height="1440" fill="#b6a5d0"></rect><path d="M0 992L61 975.7C122 959.3 244 926.7 365.8 916C487.7 905.3 609.3 916.7 731.2 942.7C853 968.7 975 1009.3 1097 1006.5C1219 1003.7 1341 957.3 1463 924.5C1585 891.7 1707 872.3 1828.8 870.8C1950.7 869.3 2072.3 885.7 2194.2 886C2316 886.3 2438 870.7 2499 862.8L2560 855L2560 1441L2499 1441C2438 1441 2316 1441 2194.2 1441C2072.3 1441 1950.7 1441 1828.8 1441C1707 1441 1585 1441 1463 1441C1341 1441 1219 1441 1097 1441C975 1441 853 1441 731.2 1441C609.3 1441 487.7 1441 365.8 1441C244 1441 122 1441 61 1441L0 1441Z" fill="#8d818f"></path><path d="M0 1150L61 1148.7C122 1147.3 244 1144.7 365.8 1139C487.7 1133.3 609.3 1124.7 731.2 1099.3C853 1074 975 1032 1097 1011.8C1219 991.7 1341 993.3 1463 994.7C1585 996 1707 997 1828.8 993.5C1950.7 990 2072.3 982 2194.2 981.5C2316 981 2438 988 2499 991.5L2560 995L2560 1441L2499 1441C2438 1441 2316 1441 2194.2 1441C2072.3 1441 1950.7 1441 1828.8 1441C1707 1441 1585 1441 1463 1441C1341 1441 1219 1441 1097 1441C975 1441 853 1441 731.2 1441C609.3 1441 487.7 1441 365.8 1441C244 1441 122 1441 61 1441L0 1441Z" fill="#7d6f7f"></path><path d="M0 1055L61 1065.7C122 1076.3 244 1097.7 365.8 1125C487.7 1152.3 609.3 1185.7 731.2 1193.2C853 1200.7 975 1182.3 1097 1163.3C1219 1144.3 1341 1124.7 1463 1134.5C1585 1144.3 1707 1183.7 1828.8 1183.5C1950.7 1183.3 2072.3 1143.7 2194.2 1117.2C2316 1090.7 2438 1077.3 2499 1070.7L2560 1064L2560 1441L2499 1441C2438 1441 2316 1441 2194.2 1441C2072.3 1441 1950.7 1441 1828.8 1441C1707 1441 1585 1441 1463 1441C1341 1441 1219 1441 1097 1441C975 1441 853 1441 731.2 1441C609.3 1441 487.7 1441 365.8 1441C244 1441 122 1441 61 1441L0 1441Z" fill="#6d5d6f"></path><path d="M0 1208L61 1207.5C122 1207 244 1206 365.8 1217C487.7 1228 609.3 1251 731.2 1252C853 1253 975 1232 1097 1234C1219 1236 1341 1261 1463 1260.2C1585 1259.3 1707 1232.7 1828.8 1228.5C1950.7 1224.3 2072.3 1242.7 2194.2 1258.5C2316 1274.3 2438 1287.7 2499 1294.3L2560 1301L2560 1441L2499 1441C2438 1441 2316 1441 2194.2 1441C2072.3 1441 1950.7 1441 1828.8 1441C1707 1441 1585 1441 1463 1441C1341 1441 1219 1441 1097 1441C975 1441 853 1441 731.2 1441C609.3 1441 487.7 1441 365.8 1441C244 1441 122 1441 61 1441L0 1441Z" fill="#5d4c60"></path><path d="M0 1284L61 1289.8C122 1295.7 244 1307.3 365.8 1309.2C487.7 1311 609.3 1303 731.2 1310C853 1317 975 1339 1097 1351.5C1219 1364 1341 1367 1463 1368.5C1585 1370 1707 1370 1828.8 1368.7C1950.7 1367.3 2072.3 1364.7 2194.2 1356.2C2316 1347.7 2438 1333.3 2499 1326.2L2560 1319L2560 1441L2499 1441C2438 1441 2316 1441 2194.2 1441C2072.3 1441 1950.7 1441 1828.8 1441C1707 1441 1585 1441 1463 1441C1341 1441 1219 1441 1097 1441C975 1441 853 1441 731.2 1441C609.3 1441 487.7 1441 365.8 1441C244 1441 122 1441 61 1441L0 1441Z" fill="#4e3c51"></path></svg>